<svg id="e3954a0a-f96c-46de-9cd5-c7c02f90c09a" data-name="Слой 1" xmlns="http://www.w3.org/2000/svg" viewBox="0 0 24 24"><title>Menu_icon_close</title><g id="b5b9d87d-907d-4a7e-95e3-20f7da98dda7" data-name="Layer 2"><g id="be462fc3-bcf7-46c6-8692-5ecf10cc5cdb" data-name="close"><g id="f9e5261e-e5d9-433c-9e22-90656a19c5b0" data-name="close-2"><rect width="24" height="24" fill="#fff" fill-opacity="0"/><path d="M13.41,12l4.3-4.29a1,1,0,1,0-1.42-1.42L12,10.59,7.71,6.29A1,1,0,0,0,6.29,7.71L10.59,12l-4.3,4.29a1,1,0,0,0,0,1.41h0a1,1,0,0,0,1.41,0h0L12,13.41l4.29,4.3a1,1,0,0,0,1.41,0h0a1,1,0,0,0,0-1.41h0Z" transform="translate(0 0)" fill="#231f20"/></g></g></g></svg>