<svg id="b03d9740-5f67-4a92-974e-4a3fb427267a" data-name="Layer 1" xmlns="http://www.w3.org/2000/svg" viewBox="0 0 300.5 199.2"><title>Menu_icon_open</title><path d="M388.3,201.9h-196c-9.9,0-17.9-9-17.9-20s8-20,17.9-20h196c9.9,0,17.9,9,17.9,20S398.2,201.9,388.3,201.9Z" transform="translate(-105.7 -156.4)" fill="#231f20"/><circle cx="25.5" cy="25.5" r="25.5" fill="#231f20"/><path d="M388.3,276h-196c-9.9,0-17.9-9-17.9-20s8-20,17.9-20h196c9.9,0,17.9,9,17.9,20S398.2,276,388.3,276Z" transform="translate(-105.7 -156.4)" fill="#231f20"/><circle cx="25.5" cy="99.6" r="25.5" fill="#231f20"/><path d="M388.3,350.1h-196c-9.9,0-17.9-9-17.9-20s8-20,17.9-20h196c9.9,0,17.9,9,17.9,20S398.2,350.1,388.3,350.1Z" transform="translate(-105.7 -156.4)" fill="#231f20"/><circle cx="25.5" cy="173.7" r="25.5" fill="#231f20"/></svg>